REM DIRINDEX 1\2,1\3,1\4,1\5,1\6,1\7,1\8
REM DIRNAME folder01,folder02,folder03,folder04,folder05,folder06,folder07,folder08
TITLE ""
FILE "006 ‚Å‚é•¶66.mp3" MP3
  TRACK 01 AUDIO
    TITLE "8:cjc150_3144"
    INDEX 01 00:00:00
  TRACK 02 AUDIO
    TITLE "0:"
    INDEX 01 00:01:60
  TRACK 03 AUDIO
    TITLE "2:cjc150_3145"
    INDEX 01 00:02:42
  TRACK 04 AUDIO
    TITLE "0:"
    INDEX 01 00:08:42
  TRACK 05 AUDIO
    TITLE "8:cjc150_3146"
    INDEX 01 00:10:00
  TRACK 06 AUDIO
    TITLE "0:"
    INDEX 01 00:12:54
  TRACK 07 AUDIO
    TITLE "3:cjc150_3147"
    INDEX 01 00:13:37
  TRACK 08 AUDIO
    TITLE "3:cjc150_3148"
    INDEX 01 00:14:74
  TRACK 09 AUDIO
    TITLE "3:cjc150_3149"
    INDEX 01 00:16:26
  TRACK 10 AUDIO
    TITLE "3:cjc150_3150"
    INDEX 01 00:17:70
  TRACK 11 AUDIO
    TITLE "3:cjc150_3151"
    INDEX 01 00:19:30
  TRACK 12 AUDIO
    TITLE "3:cjc150_3152"
    INDEX 01 00:21:58
  TRACK 13 AUDIO
    TITLE "3:cjc150_3153"
    INDEX 01 00:24:16
  TRACK 14 AUDIO
    TITLE "3:cjc150_3154"
    INDEX 01 00:26:50
  TRACK 15 AUDIO
    TITLE "8:cjc150_3155"
    INDEX 01 00:29:15
  TRACK 16 AUDIO
    TITLE "0:"
    INDEX 01 00:31:63
  TRACK 17 AUDIO
    TITLE "4:cjc150_3156"
    INDEX 01 00:32:41
  TRACK 18 AUDIO
    TITLE "4:cjc150_3157"
    INDEX 01 00:34:04
  TRACK 19 AUDIO
    TITLE "4:cjc150_3158"
    INDEX 01 00:36:13
  TRACK 20 AUDIO
    TITLE "4:cjc150_3159"
    INDEX 01 00:39:39
  TRACK 21 AUDIO
    TITLE "4:cjc150_3160"
    INDEX 01 00:43:21
  TRACK 22 AUDIO
    TITLE "4:cjc150_3161"
    INDEX 01 00:45:51
  TRACK 23 AUDIO
    TITLE "8:cjc150_3162"
    INDEX 01 00:48:34
  TRACK 24 AUDIO
    TITLE "0:"
    INDEX 01 00:51:28
  TRACK 25 AUDIO
    TITLE "5:cjc150_3163"
    INDEX 01 00:52:14
  TRACK 26 AUDIO
    TITLE "5:cjc150_3164"
    INDEX 01 00:54:44
  TRACK 27 AUDIO
    TITLE "5:cjc150_3165"
    INDEX 01 00:56:72
  TRACK 28 AUDIO
    TITLE "5:cjc150_3166"
    INDEX 01 00:58:34
  TRACK 29 AUDIO
    TITLE "5:cjc150_3167"
    INDEX 01 00:59:73
  TRACK 30 AUDIO
    TITLE "5:cjc150_3168"
    INDEX 01 01:01:66
  TRACK 31 AUDIO
    TITLE "5:cjc150_3169"
    INDEX 01 01:04:13
  TRACK 32 AUDIO
    TITLE "5:cjc150_3170"
    INDEX 01 01:05:58
  TRACK 33 AUDIO
    TITLE "5:cjc150_3171"
    INDEX 01 01:07:15
  TRACK 34 AUDIO
    TITLE "5:cjc150_3172"
    INDEX 01 01:09:24
  TRACK 35 AUDIO
    TITLE "5:cjc150_3173"
    INDEX 01 01:12:44
  TRACK 36 AUDIO
    TITLE "5:cjc150_3174"
    INDEX 01 01:14:74
  TRACK 37 AUDIO
    TITLE "5:cjc150_3175"
    INDEX 01 01:17:30
  TRACK 38 AUDIO
    TITLE "5:cjc150_3176"
    INDEX 01 01:19:27
  TRACK 39 AUDIO
    TITLE "5:cjc150_3177"
    INDEX 01 01:22:46
  TRACK 40 AUDIO
    TITLE "5:cjc150_3178"
    INDEX 01 01:25:08
  TRACK 41 AUDIO
    TITLE "8:cjc150_3179"
    INDEX 01 01:27:40
  TRACK 42 AUDIO
    TITLE "0:"
    INDEX 01 01:30:20
  TRACK 43 AUDIO
    TITLE "6:cjc150_3180"
    INDEX 01 01:31:04
  TRACK 44 AUDIO
    TITLE "6:cjc150_3181"
    INDEX 01 01:33:36
  TRACK 45 AUDIO
    TITLE "6:cjc150_3182"
    INDEX 01 01:35:61
  TRACK 46 AUDIO
    TITLE "6:cjc150_3183"
    INDEX 01 01:37:22
  TRACK 47 AUDIO
    TITLE "6:cjc150_3184"
    INDEX 01 01:38:57
  TRACK 48 AUDIO
    TITLE "6:cjc150_3185"
    INDEX 01 01:41:61
  TRACK 49 AUDIO
    TITLE "6:cjc150_3186"
    INDEX 01 01:45:73
  TRACK 50 AUDIO
    TITLE "6:cjc150_3187"
    INDEX 01 01:49:26
  TRACK 51 AUDIO
    TITLE "6:cjc150_3188"
    INDEX 01 01:52:40
  TRACK 52 AUDIO
    TITLE "6:cjc150_3189"
    INDEX 01 01:54:33
  TRACK 53 AUDIO
    TITLE "6:cjc150_3190"
    INDEX 01 01:57:41
  TRACK 54 AUDIO
    TITLE "6:cjc150_3191"
    INDEX 01 01:59:69
  TRACK 55 AUDIO
    TITLE "8:cjc150_3192"
    INDEX 01 02:01:45
  TRACK 56 AUDIO
    TITLE "0:"
    INDEX 01 02:03:24
  TRACK 57 AUDIO
    TITLE "7:cjc150_3193"
    INDEX 01 02:04:06
  TRACK 58 AUDIO
    TITLE "7:cjc150_3194"
    INDEX 01 02:10:06
  TRACK 59 AUDIO
    TITLE "0:"
    INDEX 01 02:16:13
